<svg width="497" height="228" viewBox="0 0 497 228" fill="none" xmlns="http://www.w3.org/2000/svg">
<path d="M128.32 185H99.0234L41.9922 91.4453V185H12.6953V42.8125H41.9922L99.1211 136.562V42.8125H128.32V185ZM181.836 185H153.516V79.3359H181.836V185ZM151.855 51.9922C151.855 47.7604 153.255 44.2773 156.055 41.543C158.919 38.8086 162.793 37.4414 167.676 37.4414C172.493 37.4414 176.335 38.8086 179.199 41.543C182.064 44.2773 183.496 47.7604 183.496 51.9922C183.496 56.2891 182.031 59.8047 179.102 62.5391C176.237 65.2734 172.428 66.6406 167.676 66.6406C162.923 66.6406 159.082 65.2734 156.152 62.5391C153.288 59.8047 151.855 56.2891 151.855 51.9922ZM234.961 185H206.641V35H234.961V185ZM319.531 185C318.229 182.461 317.285 179.303 316.699 175.527C309.863 183.145 300.977 186.953 290.039 186.953C279.688 186.953 271.094 183.958 264.258 177.969C257.487 171.979 254.102 164.427 254.102 155.312C254.102 144.115 258.236 135.521 266.504 129.531C274.837 123.542 286.849 120.514 302.539 120.449H315.527V114.395C315.527 109.512 314.258 105.605 311.719 102.676C309.245 99.7461 305.306 98.2812 299.902 98.2812C295.15 98.2812 291.406 99.4206 288.672 101.699C286.003 103.978 284.668 107.103 284.668 111.074H256.445C256.445 104.954 258.333 99.2904 262.109 94.082C265.885 88.8737 271.224 84.8047 278.125 81.875C285.026 78.8802 292.773 77.3828 301.367 77.3828C314.388 77.3828 324.707 80.6706 332.324 87.2461C340.007 93.7565 343.848 102.936 343.848 114.785V160.586C343.913 170.612 345.312 178.197 348.047 183.34V185H319.531ZM296.191 165.371C300.358 165.371 304.199 164.46 307.715 162.637C311.23 160.749 313.835 158.242 315.527 155.117V136.953H304.98C290.853 136.953 283.333 141.836 282.422 151.602L282.324 153.262C282.324 156.777 283.561 159.674 286.035 161.953C288.509 164.232 291.895 165.371 296.191 165.371ZM403.418 145.059L422.949 79.3359H453.223L410.742 201.406L408.398 206.973C402.083 220.775 391.667 227.676 377.148 227.676C373.047 227.676 368.88 227.057 364.648 225.82V204.434L368.945 204.531C374.284 204.531 378.255 203.717 380.859 202.09C383.529 200.462 385.612 197.76 387.109 193.984L390.43 185.293L353.418 79.3359H383.789L403.418 145.059ZM449.414 171.133C449.414 166.641 450.911 162.995 453.906 160.195C456.966 157.396 460.775 155.996 465.332 155.996C469.954 155.996 473.763 157.396 476.758 160.195C479.818 162.995 481.348 166.641 481.348 171.133C481.348 175.56 479.85 179.173 476.855 181.973C473.861 184.707 470.02 186.074 465.332 186.074C460.71 186.074 456.901 184.707 453.906 181.973C450.911 179.173 449.414 175.56 449.414 171.133Z" fill="black"/>
</svg>
